ISO-10303-21;
HEADER;
/* Generated by software containing ST-Developer
 * from STEP Tools, Inc. (www.steptools.com) 
 */

FILE_DESCRIPTION(
/* description */ (''),
/* implementation_level */ '2;1');

FILE_NAME(
/* name */ 'spectroscope project 1 v2.step',
/* time_stamp */ '2025-08-31T14:39:31+05:30',
/* author */ (''),
/* organization */ (''),
/* preprocessor_version */ 'ST-DEVELOPER v20.1',
/* originating_system */ 'Autodesk Translation Framework v14.10.0.0',
/* authorisation */ '');

FILE_SCHEMA (('AUTOMOTIVE_DESIGN { 1 0 10303 214 3 1 1 }'));
ENDSEC;

DATA;
#10=MECHANICAL_DESIGN_GEOMETRIC_PRESENTATION_REPRESENTATION('',(#13),#1198);
#11=SHAPE_REPRESENTATION_RELATIONSHIP('SRR','None',#1205,#12);
#12=ADVANCED_BREP_SHAPE_REPRESENTATION('',(#14),#1197);
#13=STYLED_ITEM('',(#1214),#14);
#14=MANIFOLD_SOLID_BREP('Body1',#631);
#15=FACE_BOUND('',#116,.T.);
#16=FACE_BOUND('',#128,.T.);
#17=FACE_BOUND('',#130,.T.);
#18=FACE_BOUND('',#136,.T.);
#19=FACE_BOUND('',#137,.T.);
#20=FACE_BOUND('',#139,.T.);
#21=FACE_BOUND('',#140,.T.);
#22=FACE_BOUND('',#143,.T.);
#23=CIRCLE('',#648,36.);
#24=CIRCLE('',#649,36.);
#25=CIRCLE('',#652,32.);
#26=CIRCLE('',#654,36.);
#27=CIRCLE('',#655,36.);
#28=CIRCLE('',#658,32.);
#29=CIRCLE('',#660,32.);
#30=CIRCLE('',#665,36.);
#31=CIRCLE('',#667,36.);
#32=CIRCLE('',#669,36.);
#33=CIRCLE('',#671,36.);
#34=CIRCLE('',#674,36.);
#35=CIRCLE('',#675,36.);
#36=CIRCLE('',#677,36.);
#37=CIRCLE('',#678,36.);
#38=CIRCLE('',#680,36.);
#39=CIRCLE('',#681,36.);
#40=CIRCLE('',#686,36.);
#41=CIRCLE('',#687,36.);
#42=CIRCLE('',#689,32.);
#43=CIRCLE('',#690,36.);
#44=CIRCLE('',#692,36.);
#45=CIRCLE('',#693,32.);
#46=CIRCLE('',#695,36.);
#47=CIRCLE('',#696,32.);
#48=CIRCLE('',#698,32.);
#49=CIRCLE('',#699,32.);
#50=CIRCLE('',#701,36.);
#51=CIRCLE('',#702,36.);
#52=PLANE('',#647);
#53=PLANE('',#650);
#54=PLANE('',#651);
#55=PLANE('',#653);
#56=PLANE('',#656);
#57=PLANE('',#657);
#58=PLANE('',#661);
#59=PLANE('',#662);
#60=PLANE('',#663);
#61=PLANE('',#672);
#62=PLANE('',#673);
#63=PLANE('',#676);
#64=PLANE('',#679);
#65=PLANE('',#682);
#66=PLANE('',#683);
#67=PLANE('',#684);
#68=PLANE('',#685);
#69=PLANE('',#688);
#70=PLANE('',#691);
#71=PLANE('',#694);
#72=PLANE('',#703);
#73=PLANE('',#704);
#74=FACE_OUTER_BOUND('',#105,.T.);
#75=FACE_OUTER_BOUND('',#106,.T.);
#76=FACE_OUTER_BOUND('',#107,.T.);
#77=FACE_OUTER_BOUND('',#108,.T.);
#78=FACE_OUTER_BOUND('',#109,.T.);
#79=FACE_OUTER_BOUND('',#110,.T.);
#80=FACE_OUTER_BOUND('',#111,.T.);
#81=FACE_OUTER_BOUND('',#112,.T.);
#82=FACE_OUTER_BOUND('',#113,.T.);
#83=FACE_OUTER_BOUND('',#114,.T.);
#84=FACE_OUTER_BOUND('',#115,.T.);
#85=FACE_OUTER_BOUND('',#117,.T.);
#86=FACE_OUTER_BOUND('',#118,.T.);
#87=FACE_OUTER_BOUND('',#119,.T.);
#88=FACE_OUTER_BOUND('',#120,.T.);
#89=FACE_OUTER_BOUND('',#121,.T.);
#90=FACE_OUTER_BOUND('',#122,.T.);
#91=FACE_OUTER_BOUND('',#123,.T.);
#92=FACE_OUTER_BOUND('',#124,.T.);
#93=FACE_OUTER_BOUND('',#125,.T.);
#94=FACE_OUTER_BOUND('',#126,.T.);
#95=FACE_OUTER_BOUND('',#127,.T.);
#96=FACE_OUTER_BOUND('',#129,.T.);
#97=FACE_OUTER_BOUND('',#131,.T.);
#98=FACE_OUTER_BOUND('',#132,.T.);
#99=FACE_OUTER_BOUND('',#133,.T.);
#100=FACE_OUTER_BOUND('',#134,.T.);
#101=FACE_OUTER_BOUND('',#135,.T.);
#102=FACE_OUTER_BOUND('',#138,.T.);
#103=FACE_OUTER_BOUND('',#141,.T.);
#104=FACE_OUTER_BOUND('',#142,.T.);
#105=EDGE_LOOP('',(#407,#408,#409,#410,#411,#412));
#106=EDGE_LOOP('',(#413,#414,#415,#416,#417,#418));
#107=EDGE_LOOP('',(#419,#420,#421,#422,#423,#424));
#108=EDGE_LOOP('',(#425,#426,#427,#428,#429,#430,#431,#432,#433,#434));
#109=EDGE_LOOP('',(#435,#436,#437,#438));
#110=EDGE_LOOP('',(#439,#440,#441,#442,#443,#444));
#111=EDGE_LOOP('',(#445,#446,#447,#448,#449,#450,#451,#452,#453,#454));
#112=EDGE_LOOP('',(#455,#456,#457,#458));
#113=EDGE_LOOP('',(#459,#460,#461,#462,#463));
#114=EDGE_LOOP('',(#464,#465,#466,#467,#468));
#115=EDGE_LOOP('',(#469,#470,#471,#472,#473));
#116=EDGE_LOOP('',(#474,#475,#476,#477));
#117=EDGE_LOOP('',(#478,#479,#480,#481,#482));
#118=EDGE_LOOP('',(#483,#484,#485,#486));
#119=EDGE_LOOP('',(#487,#488,#489,#490));
#120=EDGE_LOOP('',(#491,#492,#493,#494));
#121=EDGE_LOOP('',(#495,#496,#497,#498));
#122=EDGE_LOOP('',(#499,#500,#501,#502,#503));
#123=EDGE_LOOP('',(#504,#505,#506,#507,#508));
#124=EDGE_LOOP('',(#509,#510,#511,#512,#513));
#125=EDGE_LOOP('',(#514,#515,#516,#517,#518));
#126=EDGE_LOOP('',(#519,#520,#521,#522,#523));
#127=EDGE_LOOP('',(#524,#525,#526,#527,#528));
#128=EDGE_LOOP('',(#529,#530,#531,#532));
#129=EDGE_LOOP('',(#533,#534,#535,#536));
#130=EDGE_LOOP('',(#537));
#131=EDGE_LOOP('',(#538,#539,#540,#541,#542));
#132=EDGE_LOOP('',(#543,#544,#545,#546));
#133=EDGE_LOOP('',(#547,#548,#549,#550));
#134=EDGE_LOOP('',(#551,#552,#553,#554));
#135=EDGE_LOOP('',(#555,#556,#557,#558,#559,#560,#561));
#136=EDGE_LOOP('',(#562,#563));
#137=EDGE_LOOP('',(#564,#565));
#138=EDGE_LOOP('',(#566,#567,#568,#569,#570,#571,#572,#573,#574,#575,#576,
#577,#578,#579,#580));
#139=EDGE_LOOP('',(#581,#582));
#140=EDGE_LOOP('',(#583,#584));
#141=EDGE_LOOP('',(#585,#586,#587,#588));
#142=EDGE_LOOP('',(#589));
#143=EDGE_LOOP('',(#590));
#144=LINE('',#923,#199);
#145=LINE('',#1001,#200);
#146=LINE('',#1042,#201);
#147=LINE('',#1046,#202);
#148=LINE('',#1050,#203);
#149=LINE('',#1051,#204);
#150=LINE('',#1055,#205);
#151=LINE('',#1057,#206);
#152=LINE('',#1059,#207);
#153=LINE('',#1061,#208);
#154=LINE('',#1063,#209);
#155=LINE('',#1065,#210);
#156=LINE('',#1067,#211);
#157=LINE('',#1068,#212);
#158=LINE('',#1069,#213);
#159=LINE('',#1074,#214);
#160=LINE('',#1075,#215);
#161=LINE('',#1079,#216);
#162=LINE('',#1083,#217);
#163=LINE('',#1085,#218);
#164=LINE('',#1088,#219);
#165=LINE('',#1090,#220);
#166=LINE('',#1092,#221);
#167=LINE('',#1093,#222);
#168=LINE('',#1095,#223);
#169=LINE('',#1096,#224);
#170=LINE('',#1097,#225);
#171=LINE('',#1100,#226);
#172=LINE('',#1103,#227);
#173=LINE('',#1107,#228);
#174=LINE('',#1109,#229);
#175=LINE('',#1111,#230);
#176=LINE('',#1112,#231);
#177=LINE('',#1116,#232);
#178=LINE('',#1118,#233);
#179=LINE('',#1120,#234);
#180=LINE('',#1122,#235);
#181=LINE('',#1123,#236);
#182=LINE('',#1127,#237);
#183=LINE('',#1129,#238);
#184=LINE('',#1130,#239);
#185=LINE('',#1131,#240);
#186=LINE('',#1134,#241);
#187=LINE('',#1140,#242);
#188=LINE('',#1146,#243);
#189=LINE('',#1148,#244);
#190=LINE('',#1150,#245);
#191=LINE('',#1151,#246);
#192=LINE('',#1162,#247);
#193=LINE('',#1165,#248);
#194=LINE('',#1166,#249);
#195=LINE('',#1168,#250);
#196=LINE('',#1169,#251);
#197=LINE('',#1185,#252);
#198=LINE('',#1190,#253);
#199=VECTOR('',#709,2.5);
#200=VECTOR('',#712,2.5);
#201=VECTOR('',#715,10.);
#202=VECTOR('',#718,10.);
#203=VECTOR('',#721,10.);
#204=VECTOR('',#722,10.);
#205=VECTOR('',#725,10.);
#206=VECTOR('',#726,10.);
#207=VECTOR('',#727,10.);
#208=VECTOR('',#728,10.);
#209=VECTOR('',#729,10.);
#210=VECTOR('',#730,10.);
#211=VECTOR('',#731,10.);
#212=VECTOR('',#732,10.);
#213=VECTOR('',#733,10.);
#214=VECTOR('',#738,10.);
#215=VECTOR('',#739,10.);
#216=VECTOR('',#742,10.);
#217=VECTOR('',#745,10.);
#218=VECTOR('',#748,10.);
#219=VECTOR('',#751,10.);
#220=VECTOR('',#752,10.);
#221=VECTOR('',#753,10.);
#222=VECTOR('',#754,10.);
#223=VECTOR('',#755,10.);
#224=VECTOR('',#756,10.);
#225=VECTOR('',#757,10.);
#226=VECTOR('',#762,10.);
#227=VECTOR('',#765,32.);
#228=VECTOR('',#770,10.);
#229=VECTOR('',#771,10.);
#230=VECTOR('',#772,10.);
#231=VECTOR('',#773,10.);
#232=VECTOR('',#776,10.);
#233=VECTOR('',#777,10.);
#234=VECTOR('',#778,10.);
#235=VECTOR('',#779,10.);
#236=VECTOR('',#780,10.);
#237=VECTOR('',#783,10.);
#238=VECTOR('',#784,10.);
#239=VECTOR('',#785,10.);
#240=VECTOR('',#786,10.);
#241=VECTOR('',#789,10.);
#242=VECTOR('',#798,10.);
#243=VECTOR('',#807,10.);
#244=VECTOR('',#808,10.);
#245=VECTOR('',#809,10.);
#246=VECTOR('',#810,10.);
#247=VECTOR('',#829,10.);
#248=VECTOR('',#832,10.);
#249=VECTOR('',#833,10.);
#250=VECTOR('',#836,10.);
#251=VECTOR('',#837,10.);
#252=VECTOR('',#866,32.);
#253=VECTOR('',#873,36.);
#254=B_SPLINE_CURVE_WITH_KNOTS('',3,(#886,#887,#888,#889,#890,#891,#892,
#893,#894,#895,#896,#897,#898,#899,#900,#901,#902,#903),.UNSPECIFIED.,.F.,
 .F.,(4,2,2,2,2,2,2,2,4),(0.,0.0797643290264784,0.159528658052957,0.239292954811045,
0.319057251569133,0.398821548327221,0.478585845085309,0.558350174111787,
0.638114503138265),.UNSPECIFIED.);
#255=B_SPLINE_CURVE_WITH_KNOTS('',3,(#904,#905,#906,#907,#908,#909,#910,
#911,#912,#913,#914,#915,#916,#917,#918,#919,#920,#921),.UNSPECIFIED.,.F.,
 .F.,(4,2,2,2,2,2,2,2,4),(0.638114503138265,0.717878832164744,0.797643161191222,
0.87740745794931,0.957171754707398,1.03693605146549,1.11670034822357,1.19646467725005,
1.27622900627653),.UNSPECIFIED.);
#256=B_SPLINE_CURVE_WITH_KNOTS('',3,(#925,#926,#927,#928,#929,#930,#931,
#932,#933,#934,#935,#936,#937,#938,#939,#940,#941,#942),.UNSPECIFIED.,.F.,
 .F.,(4,2,2,2,2,2,2,2,4),(0.,0.0797695929938883,0.159539185987777,0.23930872724609,
0.319078268504404,0.398847809762718,0.478617351021031,0.55838694401492,
0.638156537008808),.UNSPECIFIED.);
#257=B_SPLINE_CURVE_WITH_KNOTS('',3,(#943,#944,#945,#946,#947,#948,#949,
#950,#951,#952,#953,#954,#955,#956,#957,#958,#959,#960),.UNSPECIFIED.,.F.,
 .F.,(4,2,2,2,2,2,2,2,4),(0.638156537008808,0.717926130002696,0.797695722996584,
0.877465264254898,0.957234805513211,1.03700434677153,1.11677388802984,1.19654348102373,
1.27631307401762),.UNSPECIFIED.);
#258=B_SPLINE_CURVE_WITH_KNOTS('',3,(#964,#965,#966,#967,#968,#969,#970,
#971,#972,#973,#974,#975,#976,#977,#978,#979,#980,#981),.UNSPECIFIED.,.F.,
 .F.,(4,2,2,2,2,2,2,2,4),(0.,0.0797695929938881,0.159539185987776,0.23930872724609,
0.319078268504404,0.398847809762717,0.478617351021031,0.558386944014919,
0.638156537008807),.UNSPECIFIED.);
#259=B_SPLINE_CURVE_WITH_KNOTS('',3,(#982,#983,#984,#985,#986,#987,#988,
#989,#990,#991,#992,#993,#994,#995,#996,#997,#998,#999),.UNSPECIFIED.,.F.,
 .F.,(4,2,2,2,2,2,2,2,4),(0.638156537008807,0.717926130002696,0.797695722996584,
0.877465264254898,0.957234805513211,1.03700434677152,1.11677388802984,1.19654348102373,
1.27631307401761),.UNSPECIFIED.);
#260=B_SPLINE_CURVE_WITH_KNOTS('',3,(#1003,#1004,#1005,#1006,#1007,#1008,
#1009,#1010,#1011,#1012,#1013,#1014,#1015,#1016,#1017,#1018,#1019,#1020),
 .UNSPECIFIED.,.F.,.F.,(4,2,2,2,2,2,2,2,4),(0.,0.0797643290264784,0.159528658052957,
0.239292954811045,0.319057251569133,0.39882154832722,0.478585845085308,
0.558350174111787,0.638114503138265),.UNSPECIFIED.);
#261=B_SPLINE_CURVE_WITH_KNOTS('',3,(#1021,#1022,#1023,#1024,#1025,#1026,
#1027,#1028,#1029,#1030,#1031,#1032,#1033,#1034,#1035,#1036,#1037,#1038),
 .UNSPECIFIED.,.F.,.F.,(4,2,2,2,2,2,2,2,4),(0.638114503138265,0.717878832164743,
0.797643161191222,0.87740745794931,0.957171754707398,1.03693605146549,1.11670034822357,
1.19646467725005,1.27622900627653),.UNSPECIFIED.);
#262=VERTEX_POINT('',#884);
#263=VERTEX_POINT('',#885);
#264=VERTEX_POINT('',#922);
#265=VERTEX_POINT('',#924);
#266=VERTEX_POINT('',#962);
#267=VERTEX_POINT('',#963);
#268=VERTEX_POINT('',#1000);
#269=VERTEX_POINT('',#1002);
#270=VERTEX_POINT('',#1040);
#271=VERTEX_POINT('',#1041);
#272=VERTEX_POINT('',#1043);
#273=VERTEX_POINT('',#1045);
#274=VERTEX_POINT('',#1047);
#275=VERTEX_POINT('',#1049);
#276=VERTEX_POINT('',#1053);
#277=VERTEX_POINT('',#1054);
#278=VERTEX_POINT('',#1056);
#279=VERTEX_POINT('',#1058);
#280=VERTEX_POINT('',#1060);
#281=VERTEX_POINT('',#1062);
#282=VERTEX_POINT('',#1064);
#283=VERTEX_POINT('',#1066);
#284=VERTEX_POINT('',#1071);
#285=VERTEX_POINT('',#1073);
#286=VERTEX_POINT('',#1077);
#287=VERTEX_POINT('',#1078);
#288=VERTEX_POINT('',#1080);
#289=VERTEX_POINT('',#1082);
#290=VERTEX_POINT('',#1087);
#291=VERTEX_POINT('',#1089);
#292=VERTEX_POINT('',#1091);
#293=VERTEX_POINT('',#1094);
#294=VERTEX_POINT('',#1102);
#295=VERTEX_POINT('',#1106);
#296=VERTEX_POINT('',#1108);
#297=VERTEX_POINT('',#1110);
#298=VERTEX_POINT('',#1114);
#299=VERTEX_POINT('',#1115);
#300=VERTEX_POINT('',#1117);
#301=VERTEX_POINT('',#1119);
#302=VERTEX_POINT('',#1121);
#303=VERTEX_POINT('',#1125);
#304=VERTEX_POINT('',#1126);
#305=VERTEX_POINT('',#1128);
#306=VERTEX_POINT('',#1133);
#307=VERTEX_POINT('',#1139);
#308=VERTEX_POINT('',#1145);
#309=VERTEX_POINT('',#1147);
#310=VERTEX_POINT('',#1149);
#311=VERTEX_POINT('',#1159);
#312=VERTEX_POINT('',#1164);
#313=VERTEX_POINT('',#1184);
#314=VERTEX_POINT('',#1189);
#315=EDGE_CURVE('',#262,#263,#254,.T.);
#316=EDGE_CURVE('',#263,#262,#255,.T.);
#317=EDGE_CURVE('',#263,#264,#144,.T.);
#318=EDGE_CURVE('',#265,#264,#256,.T.);
#319=EDGE_CURVE('',#264,#265,#257,.T.);
#320=EDGE_CURVE('',#266,#267,#258,.T.);
#321=EDGE_CURVE('',#267,#266,#259,.T.);
#322=EDGE_CURVE('',#267,#268,#145,.T.);
#323=EDGE_CURVE('',#269,#268,#260,.T.);
#324=EDGE_CURVE('',#268,#269,#261,.T.);
#325=EDGE_CURVE('',#270,#271,#146,.T.);
#326=EDGE_CURVE('',#271,#272,#23,.T.);
#327=EDGE_CURVE('',#273,#272,#147,.T.);
#328=EDGE_CURVE('',#273,#274,#24,.T.);
#329=EDGE_CURVE('',#275,#274,#148,.T.);
#330=EDGE_CURVE('',#270,#275,#149,.T.);
#331=EDGE_CURVE('',#276,#277,#150,.T.);
#332=EDGE_CURVE('',#277,#278,#151,.T.);
#333=EDGE_CURVE('',#279,#278,#152,.T.);
#334=EDGE_CURVE('',#279,#280,#153,.T.);
#335=EDGE_CURVE('',#280,#281,#154,.T.);
#336=EDGE_CURVE('',#282,#281,#155,.T.);
#337=EDGE_CURVE('',#283,#282,#156,.T.);
#338=EDGE_CURVE('',#283,#271,#157,.T.);
#339=EDGE_CURVE('',#276,#270,#158,.T.);
#340=EDGE_CURVE('',#284,#277,#25,.T.);
#341=EDGE_CURVE('',#285,#276,#159,.T.);
#342=EDGE_CURVE('',#284,#285,#160,.T.);
#343=EDGE_CURVE('',#286,#287,#161,.T.);
#344=EDGE_CURVE('',#287,#288,#26,.T.);
#345=EDGE_CURVE('',#289,#288,#162,.T.);
#346=EDGE_CURVE('',#289,#280,#27,.T.);
#347=EDGE_CURVE('',#286,#279,#163,.T.);
#348=EDGE_CURVE('',#274,#290,#164,.T.);
#349=EDGE_CURVE('',#291,#290,#165,.T.);
#350=EDGE_CURVE('',#292,#291,#166,.T.);
#351=EDGE_CURVE('',#292,#287,#167,.T.);
#352=EDGE_CURVE('',#293,#286,#168,.T.);
#353=EDGE_CURVE('',#293,#284,#169,.T.);
#354=EDGE_CURVE('',#275,#285,#170,.T.);
#355=EDGE_CURVE('',#277,#284,#28,.T.);
#356=EDGE_CURVE('',#278,#293,#171,.T.);
#357=EDGE_CURVE('',#284,#294,#172,.T.);
#358=EDGE_CURVE('',#294,#294,#29,.T.);
#359=EDGE_CURVE('',#288,#295,#173,.T.);
#360=EDGE_CURVE('',#296,#295,#174,.T.);
#361=EDGE_CURVE('',#297,#296,#175,.T.);
#362=EDGE_CURVE('',#297,#289,#176,.T.);
#363=EDGE_CURVE('',#298,#299,#177,.T.);
#364=EDGE_CURVE('',#300,#298,#178,.T.);
#365=EDGE_CURVE('',#301,#300,#179,.T.);
#366=EDGE_CURVE('',#301,#302,#180,.T.);
#367=EDGE_CURVE('',#299,#302,#181,.T.);
#368=EDGE_CURVE('',#303,#304,#182,.T.);
#369=EDGE_CURVE('',#305,#303,#183,.T.);
#370=EDGE_CURVE('',#298,#305,#184,.T.);
#371=EDGE_CURVE('',#304,#299,#185,.T.);
#372=EDGE_CURVE('',#306,#273,#186,.T.);
#373=EDGE_CURVE('',#290,#306,#30,.T.);
#374=EDGE_CURVE('',#295,#292,#31,.T.);
#375=EDGE_CURVE('',#272,#307,#187,.T.);
#376=EDGE_CURVE('',#307,#283,#32,.T.);
#377=EDGE_CURVE('',#281,#297,#33,.T.);
#378=EDGE_CURVE('',#308,#301,#188,.T.);
#379=EDGE_CURVE('',#309,#308,#189,.T.);
#380=EDGE_CURVE('',#309,#310,#190,.T.);
#381=EDGE_CURVE('',#302,#310,#191,.T.);
#382=EDGE_CURVE('',#283,#308,#34,.T.);
#383=EDGE_CURVE('',#300,#307,#35,.T.);
#384=EDGE_CURVE('',#305,#290,#36,.T.);
#385=EDGE_CURVE('',#306,#300,#37,.T.);
#386=EDGE_CURVE('',#311,#295,#38,.T.);
#387=EDGE_CURVE('',#292,#305,#39,.T.);
#388=EDGE_CURVE('',#303,#311,#192,.T.);
#389=EDGE_CURVE('',#312,#307,#193,.T.);
#390=EDGE_CURVE('',#306,#312,#194,.T.);
#391=EDGE_CURVE('',#311,#309,#195,.T.);
#392=EDGE_CURVE('',#310,#304,#196,.T.);
#393=EDGE_CURVE('',#308,#281,#40,.T.);
#394=EDGE_CURVE('',#297,#311,#41,.T.);
#395=EDGE_CURVE('',#282,#312,#42,.T.);
#396=EDGE_CURVE('',#307,#283,#43,.T.);
#397=EDGE_CURVE('',#290,#306,#44,.T.);
#398=EDGE_CURVE('',#312,#291,#45,.T.);
#399=EDGE_CURVE('',#295,#292,#46,.T.);
#400=EDGE_CURVE('',#291,#296,#47,.T.);
#401=EDGE_CURVE('',#282,#313,#197,.T.);
#402=EDGE_CURVE('',#313,#313,#48,.T.);
#403=EDGE_CURVE('',#296,#282,#49,.T.);
#404=EDGE_CURVE('',#308,#314,#198,.T.);
#405=EDGE_CURVE('',#314,#314,#50,.T.);
#406=EDGE_CURVE('',#281,#297,#51,.T.);
#407=ORIENTED_EDGE('',*,*,#315,.F.);
#408=ORIENTED_EDGE('',*,*,#316,.F.);
#409=ORIENTED_EDGE('',*,*,#317,.T.);
#410=ORIENTED_EDGE('',*,*,#318,.F.);
#411=ORIENTED_EDGE('',*,*,#319,.F.);
#412=ORIENTED_EDGE('',*,*,#317,.F.);
#413=ORIENTED_EDGE('',*,*,#320,.F.);
#414=ORIENTED_EDGE('',*,*,#321,.F.);
#415=ORIENTED_EDGE('',*,*,#322,.T.);
#416=ORIENTED_EDGE('',*,*,#323,.F.);
#417=ORIENTED_EDGE('',*,*,#324,.F.);
#418=ORIENTED_EDGE('',*,*,#322,.F.);
#419=ORIENTED_EDGE('',*,*,#325,.T.);
#420=ORIENTED_EDGE('',*,*,#326,.T.);
#421=ORIENTED_EDGE('',*,*,#327,.F.);
#422=ORIENTED_EDGE('',*,*,#328,.T.);
#423=ORIENTED_EDGE('',*,*,#329,.F.);
#424=ORIENTED_EDGE('',*,*,#330,.F.);
#425=ORIENTED_EDGE('',*,*,#331,.T.);
#426=ORIENTED_EDGE('',*,*,#332,.T.);
#427=ORIENTED_EDGE('',*,*,#333,.F.);
#428=ORIENTED_EDGE('',*,*,#334,.T.);
#429=ORIENTED_EDGE('',*,*,#335,.T.);
#430=ORIENTED_EDGE('',*,*,#336,.F.);
#431=ORIENTED_EDGE('',*,*,#337,.F.);
#432=ORIENTED_EDGE('',*,*,#338,.T.);
#433=ORIENTED_EDGE('',*,*,#325,.F.);
#434=ORIENTED_EDGE('',*,*,#339,.F.);
#435=ORIENTED_EDGE('',*,*,#340,.T.);
#436=ORIENTED_EDGE('',*,*,#331,.F.);
#437=ORIENTED_EDGE('',*,*,#341,.F.);
#438=ORIENTED_EDGE('',*,*,#342,.F.);
#439=ORIENTED_EDGE('',*,*,#343,.T.);
#440=ORIENTED_EDGE('',*,*,#344,.T.);
#441=ORIENTED_EDGE('',*,*,#345,.F.);
#442=ORIENTED_EDGE('',*,*,#346,.T.);
#443=ORIENTED_EDGE('',*,*,#334,.F.);
#444=ORIENTED_EDGE('',*,*,#347,.F.);
#445=ORIENTED_EDGE('',*,*,#329,.T.);
#446=ORIENTED_EDGE('',*,*,#348,.T.);
#447=ORIENTED_EDGE('',*,*,#349,.F.);
#448=ORIENTED_EDGE('',*,*,#350,.F.);
#449=ORIENTED_EDGE('',*,*,#351,.T.);
#450=ORIENTED_EDGE('',*,*,#343,.F.);
#451=ORIENTED_EDGE('',*,*,#352,.F.);
#452=ORIENTED_EDGE('',*,*,#353,.T.);
#453=ORIENTED_EDGE('',*,*,#342,.T.);
#454=ORIENTED_EDGE('',*,*,#354,.F.);
#455=ORIENTED_EDGE('',*,*,#355,.T.);
#456=ORIENTED_EDGE('',*,*,#353,.F.);
#457=ORIENTED_EDGE('',*,*,#356,.F.);
#458=ORIENTED_EDGE('',*,*,#332,.F.);
#459=ORIENTED_EDGE('',*,*,#355,.F.);
#460=ORIENTED_EDGE('',*,*,#340,.F.);
#461=ORIENTED_EDGE('',*,*,#357,.T.);
#462=ORIENTED_EDGE('',*,*,#358,.F.);
#463=ORIENTED_EDGE('',*,*,#357,.F.);
#464=ORIENTED_EDGE('',*,*,#345,.T.);
#465=ORIENTED_EDGE('',*,*,#359,.T.);
#466=ORIENTED_EDGE('',*,*,#360,.F.);
#467=ORIENTED_EDGE('',*,*,#361,.F.);
#468=ORIENTED_EDGE('',*,*,#362,.T.);
#469=ORIENTED_EDGE('',*,*,#363,.F.);
#470=ORIENTED_EDGE('',*,*,#364,.F.);
#471=ORIENTED_EDGE('',*,*,#365,.F.);
#472=ORIENTED_EDGE('',*,*,#366,.T.);
#473=ORIENTED_EDGE('',*,*,#367,.F.);
#474=ORIENTED_EDGE('',*,*,#330,.T.);
#475=ORIENTED_EDGE('',*,*,#354,.T.);
#476=ORIENTED_EDGE('',*,*,#341,.T.);
#477=ORIENTED_EDGE('',*,*,#339,.T.);
#478=ORIENTED_EDGE('',*,*,#368,.F.);
#479=ORIENTED_EDGE('',*,*,#369,.F.);
#480=ORIENTED_EDGE('',*,*,#370,.F.);
#481=ORIENTED_EDGE('',*,*,#363,.T.);
#482=ORIENTED_EDGE('',*,*,#371,.F.);
#483=ORIENTED_EDGE('',*,*,#372,.F.);
#484=ORIENTED_EDGE('',*,*,#373,.F.);
#485=ORIENTED_EDGE('',*,*,#348,.F.);
#486=ORIENTED_EDGE('',*,*,#328,.F.);
#487=ORIENTED_EDGE('',*,*,#351,.F.);
#488=ORIENTED_EDGE('',*,*,#374,.F.);
#489=ORIENTED_EDGE('',*,*,#359,.F.);
#490=ORIENTED_EDGE('',*,*,#344,.F.);
#491=ORIENTED_EDGE('',*,*,#375,.F.);
#492=ORIENTED_EDGE('',*,*,#326,.F.);
#493=ORIENTED_EDGE('',*,*,#338,.F.);
#494=ORIENTED_EDGE('',*,*,#376,.F.);
#495=ORIENTED_EDGE('',*,*,#335,.F.);
#496=ORIENTED_EDGE('',*,*,#346,.F.);
#497=ORIENTED_EDGE('',*,*,#362,.F.);
#498=ORIENTED_EDGE('',*,*,#377,.F.);
#499=ORIENTED_EDGE('',*,*,#366,.F.);
#500=ORIENTED_EDGE('',*,*,#378,.F.);
#501=ORIENTED_EDGE('',*,*,#379,.F.);
#502=ORIENTED_EDGE('',*,*,#380,.T.);
#503=ORIENTED_EDGE('',*,*,#381,.F.);
#504=ORIENTED_EDGE('',*,*,#382,.T.);
#505=ORIENTED_EDGE('',*,*,#378,.T.);
#506=ORIENTED_EDGE('',*,*,#365,.T.);
#507=ORIENTED_EDGE('',*,*,#383,.T.);
#508=ORIENTED_EDGE('',*,*,#376,.T.);
#509=ORIENTED_EDGE('',*,*,#384,.T.);
#510=ORIENTED_EDGE('',*,*,#373,.T.);
#511=ORIENTED_EDGE('',*,*,#385,.T.);
#512=ORIENTED_EDGE('',*,*,#364,.T.);
#513=ORIENTED_EDGE('',*,*,#370,.T.);
#514=ORIENTED_EDGE('',*,*,#386,.T.);
#515=ORIENTED_EDGE('',*,*,#374,.T.);
#516=ORIENTED_EDGE('',*,*,#387,.T.);
#517=ORIENTED_EDGE('',*,*,#369,.T.);
#518=ORIENTED_EDGE('',*,*,#388,.T.);
#519=ORIENTED_EDGE('',*,*,#327,.T.);
#520=ORIENTED_EDGE('',*,*,#375,.T.);
#521=ORIENTED_EDGE('',*,*,#389,.F.);
#522=ORIENTED_EDGE('',*,*,#390,.F.);
#523=ORIENTED_EDGE('',*,*,#372,.T.);
#524=ORIENTED_EDGE('',*,*,#380,.F.);
#525=ORIENTED_EDGE('',*,*,#391,.F.);
#526=ORIENTED_EDGE('',*,*,#388,.F.);
#527=ORIENTED_EDGE('',*,*,#368,.T.);
#528=ORIENTED_EDGE('',*,*,#392,.F.);
#529=ORIENTED_EDGE('',*,*,#347,.T.);
#530=ORIENTED_EDGE('',*,*,#333,.T.);
#531=ORIENTED_EDGE('',*,*,#356,.T.);
#532=ORIENTED_EDGE('',*,*,#352,.T.);
#533=ORIENTED_EDGE('',*,*,#367,.T.);
#534=ORIENTED_EDGE('',*,*,#381,.T.);
#535=ORIENTED_EDGE('',*,*,#392,.T.);
#536=ORIENTED_EDGE('',*,*,#371,.T.);
#537=ORIENTED_EDGE('',*,*,#358,.T.);
#538=ORIENTED_EDGE('',*,*,#393,.T.);
#539=ORIENTED_EDGE('',*,*,#377,.T.);
#540=ORIENTED_EDGE('',*,*,#394,.T.);
#541=ORIENTED_EDGE('',*,*,#391,.T.);
#542=ORIENTED_EDGE('',*,*,#379,.T.);
#543=ORIENTED_EDGE('',*,*,#337,.T.);
#544=ORIENTED_EDGE('',*,*,#395,.T.);
#545=ORIENTED_EDGE('',*,*,#389,.T.);
#546=ORIENTED_EDGE('',*,*,#396,.T.);
#547=ORIENTED_EDGE('',*,*,#349,.T.);
#548=ORIENTED_EDGE('',*,*,#397,.T.);
#549=ORIENTED_EDGE('',*,*,#390,.T.);
#550=ORIENTED_EDGE('',*,*,#398,.T.);
#551=ORIENTED_EDGE('',*,*,#360,.T.);
#552=ORIENTED_EDGE('',*,*,#399,.T.);
#553=ORIENTED_EDGE('',*,*,#350,.T.);
#554=ORIENTED_EDGE('',*,*,#400,.T.);
#555=ORIENTED_EDGE('',*,*,#395,.F.);
#556=ORIENTED_EDGE('',*,*,#401,.T.);
#557=ORIENTED_EDGE('',*,*,#402,.T.);
#558=ORIENTED_EDGE('',*,*,#401,.F.);
#559=ORIENTED_EDGE('',*,*,#403,.F.);
#560=ORIENTED_EDGE('',*,*,#400,.F.);
#561=ORIENTED_EDGE('',*,*,#398,.F.);
#562=ORIENTED_EDGE('',*,*,#320,.T.);
#563=ORIENTED_EDGE('',*,*,#321,.T.);
#564=ORIENTED_EDGE('',*,*,#318,.T.);
#565=ORIENTED_EDGE('',*,*,#319,.T.);
#566=ORIENTED_EDGE('',*,*,#393,.F.);
#567=ORIENTED_EDGE('',*,*,#404,.T.);
#568=ORIENTED_EDGE('',*,*,#405,.T.);
#569=ORIENTED_EDGE('',*,*,#404,.F.);
#570=ORIENTED_EDGE('',*,*,#382,.F.);
#571=ORIENTED_EDGE('',*,*,#396,.F.);
#572=ORIENTED_EDGE('',*,*,#383,.F.);
#573=ORIENTED_EDGE('',*,*,#385,.F.);
#574=ORIENTED_EDGE('',*,*,#397,.F.);
#575=ORIENTED_EDGE('',*,*,#384,.F.);
#576=ORIENTED_EDGE('',*,*,#387,.F.);
#577=ORIENTED_EDGE('',*,*,#399,.F.);
#578=ORIENTED_EDGE('',*,*,#386,.F.);
#579=ORIENTED_EDGE('',*,*,#394,.F.);
#580=ORIENTED_EDGE('',*,*,#406,.F.);
#581=ORIENTED_EDGE('',*,*,#323,.T.);
#582=ORIENTED_EDGE('',*,*,#324,.T.);
#583=ORIENTED_EDGE('',*,*,#315,.T.);
#584=ORIENTED_EDGE('',*,*,#316,.T.);
#585=ORIENTED_EDGE('',*,*,#336,.T.);
#586=ORIENTED_EDGE('',*,*,#406,.T.);
#587=ORIENTED_EDGE('',*,*,#361,.T.);
#588=ORIENTED_EDGE('',*,*,#403,.T.);
#589=ORIENTED_EDGE('',*,*,#405,.F.);
#590=ORIENTED_EDGE('',*,*,#402,.F.);
#591=CYLINDRICAL_SURFACE('',#645,2.117);
#592=CYLINDRICAL_SURFACE('',#646,2.117);
#593=CYLINDRICAL_SURFACE('',#659,32.);
#594=CYLINDRICAL_SURFACE('',#664,36.);
#595=CYLINDRICAL_SURFACE('',#666,36.);
#596=CYLINDRICAL_SURFACE('',#668,36.);
#597=CYLINDRICAL_SURFACE('',#670,36.);
#598=CYLINDRICAL_SURFACE('',#697,32.);
#599=CYLINDRICAL_SURFACE('',#700,36.);
#600=ADVANCED_FACE('',(#74),#591,.F.);
#601=ADVANCED_FACE('',(#75),#592,.F.);
#602=ADVANCED_FACE('',(#76),#52,.T.);
#603=ADVANCED_FACE('',(#77),#53,.T.);
#604=ADVANCED_FACE('',(#78),#54,.F.);
#605=ADVANCED_FACE('',(#79),#55,.T.);
#606=ADVANCED_FACE('',(#80),#56,.T.);
#607=ADVANCED_FACE('',(#81),#57,.F.);
#608=ADVANCED_FACE('',(#82),#593,.F.);
#609=ADVANCED_FACE('',(#83),#58,.T.);
#610=ADVANCED_FACE('',(#84,#15),#59,.T.);
#611=ADVANCED_FACE('',(#85),#60,.T.);
#612=ADVANCED_FACE('',(#86),#594,.F.);
#613=ADVANCED_FACE('',(#87),#595,.F.);
#614=ADVANCED_FACE('',(#88),#596,.F.);
#615=ADVANCED_FACE('',(#89),#597,.F.);
#616=ADVANCED_FACE('',(#90),#61,.T.);
#617=ADVANCED_FACE('',(#91),#62,.F.);
#618=ADVANCED_FACE('',(#92),#63,.F.);
#619=ADVANCED_FACE('',(#93),#64,.F.);
#620=ADVANCED_FACE('',(#94),#65,.T.);
#621=ADVANCED_FACE('',(#95,#16),#66,.T.);
#622=ADVANCED_FACE('',(#96,#17),#67,.T.);
#623=ADVANCED_FACE('',(#97),#68,.F.);
#624=ADVANCED_FACE('',(#98),#69,.T.);
#625=ADVANCED_FACE('',(#99),#70,.T.);
#626=ADVANCED_FACE('',(#100),#71,.T.);
#627=ADVANCED_FACE('',(#101,#18,#19),#598,.F.);
#628=ADVANCED_FACE('',(#102,#20,#21),#599,.T.);
#629=ADVANCED_FACE('',(#103),#72,.T.);
#630=ADVANCED_FACE('',(#104,#22),#73,.F.);
#631=CLOSED_SHELL('',(#600,#601,#602,#603,#604,#605,#606,#607,#608,#609,
#610,#611,#612,#613,#614,#615,#616,#617,#618,#619,#620,#621,#622,#623,#624,
#625,#626,#627,#628,#629,#630));
#632=DERIVED_UNIT_ELEMENT(#634,1.);
#633=DERIVED_UNIT_ELEMENT(#1200,-3.);
#634=(
MASS_UNIT()
NAMED_UNIT(*)
SI_UNIT(.KILO.,.GRAM.)
);
#635=DERIVED_UNIT((#632,#633));
#636=MEASURE_REPRESENTATION_ITEM('density measure',
POSITIVE_RATIO_MEASURE(7850.),#635);
#637=PROPERTY_DEFINITION_REPRESENTATION(#642,#639);
#638=PROPERTY_DEFINITION_REPRESENTATION(#643,#640);
#639=REPRESENTATION('material name',(#641),#1197);
#640=REPRESENTATION('density',(#636),#1197);
#641=DESCRIPTIVE_REPRESENTATION_ITEM('Steel','Steel');
#642=PROPERTY_DEFINITION('material property','material name',#1207);
#643=PROPERTY_DEFINITION('material property','density of part',#1207);
#644=AXIS2_PLACEMENT_3D('',#882,#705,#706);
#645=AXIS2_PLACEMENT_3D('',#883,#707,#708);
#646=AXIS2_PLACEMENT_3D('',#961,#710,#711);
#647=AXIS2_PLACEMENT_3D('',#1039,#713,#714);
#648=AXIS2_PLACEMENT_3D('',#1044,#716,#717);
#649=AXIS2_PLACEMENT_3D('',#1048,#719,#720);
#650=AXIS2_PLACEMENT_3D('',#1052,#723,#724);
#651=AXIS2_PLACEMENT_3D('',#1070,#734,#735);
#652=AXIS2_PLACEMENT_3D('',#1072,#736,#737);
#653=AXIS2_PLACEMENT_3D('',#1076,#740,#741);
#654=AXIS2_PLACEMENT_3D('',#1081,#743,#744);
#655=AXIS2_PLACEMENT_3D('',#1084,#746,#747);
#656=AXIS2_PLACEMENT_3D('',#1086,#749,#750);
#657=AXIS2_PLACEMENT_3D('',#1098,#758,#759);
#658=AXIS2_PLACEMENT_3D('',#1099,#760,#761);
#659=AXIS2_PLACEMENT_3D('',#1101,#763,#764);
#660=AXIS2_PLACEMENT_3D('',#1104,#766,#767);
#661=AXIS2_PLACEMENT_3D('',#1105,#768,#769);
#662=AXIS2_PLACEMENT_3D('',#1113,#774,#775);
#663=AXIS2_PLACEMENT_3D('',#1124,#781,#782);
#664=AXIS2_PLACEMENT_3D('',#1132,#787,#788);
#665=AXIS2_PLACEMENT_3D('',#1135,#790,#791);
#666=AXIS2_PLACEMENT_3D('',#1136,#792,#793);
#667=AXIS2_PLACEMENT_3D('',#1137,#794,#795);
#668=AXIS2_PLACEMENT_3D('',#1138,#796,#797);
#669=AXIS2_PLACEMENT_3D('',#1141,#799,#800);
#670=AXIS2_PLACEMENT_3D('',#1142,#801,#802);
#671=AXIS2_PLACEMENT_3D('',#1143,#803,#804);
#672=AXIS2_PLACEMENT_3D('',#1144,#805,#806);
#673=AXIS2_PLACEMENT_3D('',#1152,#811,#812);
#674=AXIS2_PLACEMENT_3D('',#1153,#813,#814);
#675=AXIS2_PLACEMENT_3D('',#1154,#815,#816);
#676=AXIS2_PLACEMENT_3D('',#1155,#817,#818);
#677=AXIS2_PLACEMENT_3D('',#1156,#819,#820);
#678=AXIS2_PLACEMENT_3D('',#1157,#821,#822);
#679=AXIS2_PLACEMENT_3D('',#1158,#823,#824);
#680=AXIS2_PLACEMENT_3D('',#1160,#825,#826);
#681=AXIS2_PLACEMENT_3D('',#1161,#827,#828);
#682=AXIS2_PLACEMENT_3D('',#1163,#830,#831);
#683=AXIS2_PLACEMENT_3D('',#1167,#834,#835);
#684=AXIS2_PLACEMENT_3D('',#1170,#838,#839);
#685=AXIS2_PLACEMENT_3D('',#1171,#840,#841);
#686=AXIS2_PLACEMENT_3D('',#1172,#842,#843);
#687=AXIS2_PLACEMENT_3D('',#1173,#844,#845);
#688=AXIS2_PLACEMENT_3D('',#1174,#846,#847);
#689=AXIS2_PLACEMENT_3D('',#1175,#848,#849);
#690=AXIS2_PLACEMENT_3D('',#1176,#850,#851);
#691=AXIS2_PLACEMENT_3D('',#1177,#852,#853);
#692=AXIS2_PLACEMENT_3D('',#1178,#854,#855);
#693=AXIS2_PLACEMENT_3D('',#1179,#856,#857);
#694=AXIS2_PLACEMENT_3D('',#1180,#858,#859);
#695=AXIS2_PLACEMENT_3D('',#1181,#860,#861);
#696=AXIS2_PLACEMENT_3D('',#1182,#862,#863);
#697=AXIS2_PLACEMENT_3D('',#1183,#864,#865);
#698=AXIS2_PLACEMENT_3D('',#1186,#867,#868);
#699=AXIS2_PLACEMENT_3D('',#1187,#869,#870);
#700=AXIS2_PLACEMENT_3D('',#1188,#871,#872);
#701=AXIS2_PLACEMENT_3D('',#1191,#874,#875);
#702=AXIS2_PLACEMENT_3D('',#1192,#876,#877);
#703=AXIS2_PLACEMENT_3D('',#1193,#878,#879);
#704=AXIS2_PLACEMENT_3D('',#1194,#880,#881);
#705=DIRECTION('axis',(0.,0.,1.));
#706=DIRECTION('refdir',(1.,0.,0.));
#707=DIRECTION('center_axis',(0.,0.,1.));
#708=DIRECTION('ref_axis',(1.,0.,0.));
#709=DIRECTION('',(0.,0.,1.));
#710=DIRECTION('center_axis',(0.,0.,1.));
#711=DIRECTION('ref_axis',(1.,0.,0.));
#712=DIRECTION('',(0.,0.,1.));
#713=DIRECTION('center_axis',(0.,1.,0.));
#714=DIRECTION('ref_axis',(-1.,0.,0.));
#715=DIRECTION('',(0.,0.,1.));
#716=DIRECTION('center_axis',(0.,-1.,0.));
#717=DIRECTION('ref_axis',(-1.,0.,0.));
#718=DIRECTION('',(-1.,0.,0.));
#719=DIRECTION('center_axis',(0.,-1.,0.));
#720=DIRECTION('ref_axis',(-1.,0.,0.));
#721=DIRECTION('',(0.,0.,1.));
#722=DIRECTION('',(1.,0.,0.));
#723=DIRECTION('center_axis',(1.,0.,0.));
#724=DIRECTION('ref_axis',(0.,0.,-1.));
#725=DIRECTION('',(0.,0.,1.));
#726=DIRECTION('',(0.,0.,1.));
#727=DIRECTION('',(0.,1.,0.));
#728=DIRECTION('',(0.,0.,-1.));
#729=DIRECTION('',(0.,-1.,0.));
#730=DIRECTION('',(0.,0.,1.));
#731=DIRECTION('',(0.,0.,1.));
#732=DIRECTION('',(0.,1.,0.));
#733=DIRECTION('',(0.,-1.,0.));
#734=DIRECTION('center_axis',(0.,1.,0.));
#735=DIRECTION('ref_axis',(-1.,0.,0.));
#736=DIRECTION('center_axis',(0.,1.,0.));
#737=DIRECTION('ref_axis',(-1.,0.,0.));
#738=DIRECTION('',(-1.,0.,0.));
#739=DIRECTION('',(0.,0.,-1.));
#740=DIRECTION('center_axis',(0.,1.,0.));
#741=DIRECTION('ref_axis',(-1.,0.,0.));
#742=DIRECTION('',(0.,0.,-1.));
#743=DIRECTION('center_axis',(0.,-1.,0.));
#744=DIRECTION('ref_axis',(-1.,0.,0.));
#745=DIRECTION('',(1.,0.,0.));
#746=DIRECTION('center_axis',(0.,-1.,0.));
#747=DIRECTION('ref_axis',(-1.,0.,0.));
#748=DIRECTION('',(-1.,0.,0.));
#749=DIRECTION('center_axis',(-1.,0.,0.));
#750=DIRECTION('ref_axis',(0.,0.,1.));
#751=DIRECTION('',(0.,-1.,0.));
#752=DIRECTION('',(0.,0.,-1.));
#753=DIRECTION('',(0.,0.,-1.));
#754=DIRECTION('',(0.,1.,0.));
#755=DIRECTION('',(0.,-1.,0.));
#756=DIRECTION('',(0.,0.,-1.));
#757=DIRECTION('',(0.,1.,0.));
#758=DIRECTION('center_axis',(0.,1.,0.));
#759=DIRECTION('ref_axis',(-1.,0.,0.));
#760=DIRECTION('center_axis',(0.,1.,0.));
#761=DIRECTION('ref_axis',(-1.,0.,0.));
#762=DIRECTION('',(1.,0.,0.));
#763=DIRECTION('center_axis',(0.,-1.,0.));
#764=DIRECTION('ref_axis',(-1.,0.,0.));
#765=DIRECTION('',(0.,1.,0.));
#766=DIRECTION('center_axis',(0.,-1.,0.));
#767=DIRECTION('ref_axis',(-1.,0.,0.));
#768=DIRECTION('center_axis',(0.,0.,-1.));
#769=DIRECTION('ref_axis',(-1.,0.,0.));
#770=DIRECTION('',(0.,-1.,0.));
#771=DIRECTION('',(1.,0.,0.));
#772=DIRECTION('',(1.,0.,0.));
#773=DIRECTION('',(0.,1.,0.));
#774=DIRECTION('center_axis',(0.,0.,-1.));
#775=DIRECTION('ref_axis',(-1.,0.,0.));
#776=DIRECTION('',(0.,1.,0.));
#777=DIRECTION('',(1.,0.,0.));
#778=DIRECTION('',(1.,0.,0.));
#779=DIRECTION('',(0.,1.,0.));
#780=DIRECTION('',(-1.,0.,0.));
#781=DIRECTION('center_axis',(1.,0.,0.));
#782=DIRECTION('ref_axis',(0.,0.,-1.));
#783=DIRECTION('',(0.,1.,0.));
#784=DIRECTION('',(0.,0.,1.));
#785=DIRECTION('',(0.,0.,1.));
#786=DIRECTION('',(0.,0.,-1.));
#787=DIRECTION('center_axis',(0.,1.,0.));
#788=DIRECTION('ref_axis',(-1.,0.,0.));
#789=DIRECTION('',(0.,1.,0.));
#790=DIRECTION('center_axis',(0.,1.,0.));
#791=DIRECTION('ref_axis',(1.,0.,0.));
#792=DIRECTION('center_axis',(0.,1.,0.));
#793=DIRECTION('ref_axis',(-1.,0.,0.));
#794=DIRECTION('center_axis',(0.,1.,0.));
#795=DIRECTION('ref_axis',(1.,0.,0.));
#796=DIRECTION('center_axis',(0.,1.,0.));
#797=DIRECTION('ref_axis',(-1.,0.,0.));
#798=DIRECTION('',(0.,-1.,0.));
#799=DIRECTION('center_axis',(0.,1.,0.));
#800=DIRECTION('ref_axis',(1.,0.,0.));
#801=DIRECTION('center_axis',(0.,1.,0.));
#802=DIRECTION('ref_axis',(-1.,0.,0.));
#803=DIRECTION('center_axis',(0.,1.,0.));
#804=DIRECTION('ref_axis',(1.,0.,0.));
#805=DIRECTION('center_axis',(-1.,0.,0.));
#806=DIRECTION('ref_axis',(0.,0.,1.));
#807=DIRECTION('',(0.,0.,-1.));
#808=DIRECTION('',(0.,0.,-1.));
#809=DIRECTION('',(0.,1.,0.));
#810=DIRECTION('',(0.,0.,1.));
#811=DIRECTION('center_axis',(0.,1.,0.));
#812=DIRECTION('ref_axis',(-1.,0.,0.));
#813=DIRECTION('center_axis',(0.,1.,0.));
#814=DIRECTION('ref_axis',(1.,0.,0.));
#815=DIRECTION('center_axis',(0.,1.,0.));
#816=DIRECTION('ref_axis',(1.,0.,0.));
#817=DIRECTION('center_axis',(0.,1.,0.));
#818=DIRECTION('ref_axis',(-1.,0.,0.));
#819=DIRECTION('center_axis',(0.,1.,0.));
#820=DIRECTION('ref_axis',(1.,0.,0.));
#821=DIRECTION('center_axis',(0.,1.,0.));
#822=DIRECTION('ref_axis',(1.,0.,0.));
#823=DIRECTION('center_axis',(0.,1.,0.));
#824=DIRECTION('ref_axis',(-1.,0.,0.));
#825=DIRECTION('center_axis',(0.,1.,0.));
#826=DIRECTION('ref_axis',(1.,0.,0.));
#827=DIRECTION('center_axis',(0.,1.,0.));
#828=DIRECTION('ref_axis',(1.,0.,0.));
#829=DIRECTION('',(-1.,0.,0.));
#830=DIRECTION('center_axis',(0.,0.,1.));
#831=DIRECTION('ref_axis',(1.,0.,0.));
#832=DIRECTION('',(-1.,0.,0.));
#833=DIRECTION('',(-1.,0.,0.));
#834=DIRECTION('center_axis',(0.,0.,1.));
#835=DIRECTION('ref_axis',(1.,0.,0.));
#836=DIRECTION('',(-1.,0.,0.));
#837=DIRECTION('',(1.,0.,0.));
#838=DIRECTION('center_axis',(0.,1.,0.));
#839=DIRECTION('ref_axis',(0.,0.,1.));
#840=DIRECTION('center_axis',(0.,1.,0.));
#841=DIRECTION('ref_axis',(-1.,0.,0.));
#842=DIRECTION('center_axis',(0.,1.,0.));
#843=DIRECTION('ref_axis',(1.,0.,0.));
#844=DIRECTION('center_axis',(0.,1.,0.));
#845=DIRECTION('ref_axis',(1.,0.,0.));
#846=DIRECTION('center_axis',(0.,1.,0.));
#847=DIRECTION('ref_axis',(1.,0.,0.));
#848=DIRECTION('center_axis',(0.,-1.,0.));
#849=DIRECTION('ref_axis',(1.,0.,0.));
#850=DIRECTION('center_axis',(0.,1.,0.));
#851=DIRECTION('ref_axis',(1.,0.,0.));
#852=DIRECTION('center_axis',(0.,1.,0.));
#853=DIRECTION('ref_axis',(1.,0.,0.));
#854=DIRECTION('center_axis',(0.,1.,0.));
#855=DIRECTION('ref_axis',(1.,0.,0.));
#856=DIRECTION('center_axis',(0.,-1.,0.));
#857=DIRECTION('ref_axis',(1.,0.,0.));
#858=DIRECTION('center_axis',(0.,1.,0.));
#859=DIRECTION('ref_axis',(1.,0.,0.));
#860=DIRECTION('center_axis',(0.,1.,0.));
#861=DIRECTION('ref_axis',(1.,0.,0.));
#862=DIRECTION('center_axis',(0.,-1.,0.));
#863=DIRECTION('ref_axis',(1.,0.,0.));
#864=DIRECTION('center_axis',(0.,1.,0.));
#865=DIRECTION('ref_axis',(1.,0.,0.));
#866=DIRECTION('',(0.,-1.,0.));
#867=DIRECTION('center_axis',(0.,-1.,0.));
#868=DIRECTION('ref_axis',(1.,0.,0.));
#869=DIRECTION('center_axis',(0.,-1.,0.));
#870=DIRECTION('ref_axis',(1.,0.,0.));
#871=DIRECTION('center_axis',(0.,1.,0.));
#872=DIRECTION('ref_axis',(1.,0.,0.));
#873=DIRECTION('',(0.,-1.,0.));
#874=DIRECTION('center_axis',(0.,1.,0.));
#875=DIRECTION('ref_axis',(1.,0.,0.));
#876=DIRECTION('center_axis',(0.,1.,0.));
#877=DIRECTION('ref_axis',(1.,0.,0.));
#878=DIRECTION('center_axis',(0.,1.,0.));
#879=DIRECTION('ref_axis',(1.,0.,0.));
#880=DIRECTION('center_axis',(0.,1.,0.));
#881=DIRECTION('ref_axis',(1.,0.,0.));
#882=CARTESIAN_POINT('',(0.,0.,0.));
#883=CARTESIAN_POINT('Origin',(0.,40.,0.));
#884=CARTESIAN_POINT('',(2.117,40.,-35.9377004133542));
#885=CARTESIAN_POINT('',(-2.117,40.,-35.9377004133542));
#886=CARTESIAN_POINT('Ctrl Pts',(2.117,40.,-35.9377004133542));
#887=CARTESIAN_POINT('Ctrl Pts',(2.117,40.2658810967549,-35.9377004133542));
#888=CARTESIAN_POINT('Ctrl Pts',(2.0638510410691,40.5494425152262,-35.9409546985211));
#889=CARTESIAN_POINT('Ctrl Pts',(1.84778436728701,41.0710094069531,-35.9527105887078));
#890=CARTESIAN_POINT('Ctrl Pts',(1.68487002642654,41.3090200851173,-35.9610426706049));
#891=CARTESIAN_POINT('Ctrl Pts',(1.30902016114172,41.6848699504021,-35.9766847159673));
#892=CARTESIAN_POINT('Ctrl Pts',(1.07100944873057,41.847784348995,-35.9850105080031));
#893=CARTESIAN_POINT('Ctrl Pts',(0.549442446778341,42.0638510704097,-35.9967520131684));
#894=CARTESIAN_POINT('Ctrl Pts',(0.265880989193627,42.117,-36.));
#895=CARTESIAN_POINT('Ctrl Pts',(-0.265880989193626,42.117,-36.));
#896=CARTESIAN_POINT('Ctrl Pts',(-0.549442446778341,42.0638510704097,-35.9967520131684));
#897=CARTESIAN_POINT('Ctrl Pts',(-1.07100944873057,41.847784348995,-35.9850105080031));
#898=CARTESIAN_POINT('Ctrl Pts',(-1.30902016114172,41.6848699504021,-35.9766847159673));
#899=CARTESIAN_POINT('Ctrl Pts',(-1.68487002642654,41.3090200851173,-35.9610426706049));
#900=CARTESIAN_POINT('Ctrl Pts',(-1.84778436728701,41.0710094069531,-35.9527105887078));
#901=CARTESIAN_POINT('Ctrl Pts',(-2.0638510410691,40.5494425152262,-35.9409546985211));
#902=CARTESIAN_POINT('Ctrl Pts',(-2.117,40.2658810967549,-35.9377004133542));
#903=CARTESIAN_POINT('Ctrl Pts',(-2.117,40.,-35.9377004133542));
#904=CARTESIAN_POINT('Ctrl Pts',(-2.117,40.,-35.9377004133542));
#905=CARTESIAN_POINT('Ctrl Pts',(-2.117,39.7341189032451,-35.9377004133542));
#906=CARTESIAN_POINT('Ctrl Pts',(-2.0638510410691,39.4505574847738,-35.9409546985211));
#907=CARTESIAN_POINT('Ctrl Pts',(-1.84778436728701,38.9289905930469,-35.9527105887078));
#908=CARTESIAN_POINT('Ctrl Pts',(-1.68487002642654,38.6909799148827,-35.9610426706049));
#909=CARTESIAN_POINT('Ctrl Pts',(-1.30902016114172,38.3151300495979,-35.9766847159673));
#910=CARTESIAN_POINT('Ctrl Pts',(-1.07100944873057,38.152215651005,-35.9850105080031));
#911=CARTESIAN_POINT('Ctrl Pts',(-0.549442446778346,37.9361489295903,-35.9967520131684));
#912=CARTESIAN_POINT('Ctrl Pts',(-0.265880989193627,37.883,-36.));
#913=CARTESIAN_POINT('Ctrl Pts',(0.265880989193626,37.883,-36.));
#914=CARTESIAN_POINT('Ctrl Pts',(0.549442446778343,37.9361489295903,-35.9967520131684));
#915=CARTESIAN_POINT('Ctrl Pts',(1.07100944873057,38.152215651005,-35.9850105080031));
#916=CARTESIAN_POINT('Ctrl Pts',(1.30902016114172,38.3151300495979,-35.9766847159673));
#917=CARTESIAN_POINT('Ctrl Pts',(1.68487002642654,38.6909799148827,-35.9610426706049));
#918=CARTESIAN_POINT('Ctrl Pts',(1.847784367287,38.9289905930469,-35.9527105887078));
#919=CARTESIAN_POINT('Ctrl Pts',(2.0638510410691,39.4505574847737,-35.9409546985211));
#920=CARTESIAN_POINT('Ctrl Pts',(2.117,39.7341189032451,-35.9377004133542));
#921=CARTESIAN_POINT('Ctrl Pts',(2.117,40.,-35.9377004133542));
#922=CARTESIAN_POINT('',(-2.117,40.,-31.9298968210046));
#923=CARTESIAN_POINT('',(-2.117,40.,0.));
#924=CARTESIAN_POINT('',(2.117,40.,-31.9298968210046));
#925=CARTESIAN_POINT('Ctrl Pts',(2.117,40.,-31.9298968210046));
#926=CARTESIAN_POINT('Ctrl Pts',(2.117,39.734101356687,-31.9298968210046));
#927=CARTESIAN_POINT('Ctrl Pts',(2.06384419080719,39.4505324094126,-31.9335601316241));
#928=CARTESIAN_POINT('Ctrl Pts',(1.84777245078695,38.9289703677561,-31.9467909573391));
#929=CARTESIAN_POINT('Ctrl Pts',(1.68486078717228,38.6909706756284,-31.9561673843134));
#930=CARTESIAN_POINT('Ctrl Pts',(1.30902944624667,38.3151393347028,-31.973767867259));
#931=CARTESIAN_POINT('Ctrl Pts',(1.07102969964254,38.1522275776925,-31.9831353340804));
#932=CARTESIAN_POINT('Ctrl Pts',(0.549467480556281,37.9361557630517,-31.9963456648225));
#933=CARTESIAN_POINT('Ctrl Pts',(0.265898470861046,37.883,-32.));
#934=CARTESIAN_POINT('Ctrl Pts',(-0.265898470861045,37.883,-32.));
#935=CARTESIAN_POINT('Ctrl Pts',(-0.54946748055628,37.9361557630517,-31.9963456648225));
#936=CARTESIAN_POINT('Ctrl Pts',(-1.07102969964253,38.1522275776925,-31.9831353340804));
#937=CARTESIAN_POINT('Ctrl Pts',(-1.30902944624667,38.3151393347028,-31.973767867259));
#938=CARTESIAN_POINT('Ctrl Pts',(-1.68486078717228,38.6909706756284,-31.9561673843134));
#939=CARTESIAN_POINT('Ctrl Pts',(-1.84777245078695,38.9289703677561,-31.9467909573391));
#940=CARTESIAN_POINT('Ctrl Pts',(-2.0638441908072,39.4505324094127,-31.9335601316241));
#941=CARTESIAN_POINT('Ctrl Pts',(-2.117,39.734101356687,-31.9298968210046));
#942=CARTESIAN_POINT('Ctrl Pts',(-2.117,40.,-31.9298968210046));
#943=CARTESIAN_POINT('Ctrl Pts',(-2.117,40.,-31.9298968210046));
#944=CARTESIAN_POINT('Ctrl Pts',(-2.117,40.265898643313,-31.9298968210046));
#945=CARTESIAN_POINT('Ctrl Pts',(-2.06384419080719,40.5494675905873,-31.9335601316241));
#946=CARTESIAN_POINT('Ctrl Pts',(-1.84777245078694,41.0710296322439,-31.9467909573391));
#947=CARTESIAN_POINT('Ctrl Pts',(-1.68486078717228,41.3090293243716,-31.9561673843134));
#948=CARTESIAN_POINT('Ctrl Pts',(-1.30902944624667,41.6848606652972,-31.973767867259));
#949=CARTESIAN_POINT('Ctrl Pts',(-1.07102969964254,41.8477724223075,-31.9831353340804));
#950=CARTESIAN_POINT('Ctrl Pts',(-0.549467480556283,42.0638442369483,-31.9963456648225));
#951=CARTESIAN_POINT('Ctrl Pts',(-0.265898470861046,42.117,-32.));
#952=CARTESIAN_POINT('Ctrl Pts',(0.265898470861045,42.117,-32.));
#953=CARTESIAN_POINT('Ctrl Pts',(0.549467480556281,42.0638442369483,-31.9963456648225));
#954=CARTESIAN_POINT('Ctrl Pts',(1.07102969964254,41.8477724223075,-31.9831353340804));
#955=CARTESIAN_POINT('Ctrl Pts',(1.30902944624667,41.6848606652972,-31.973767867259));
#956=CARTESIAN_POINT('Ctrl Pts',(1.68486078717228,41.3090293243716,-31.9561673843134));
#957=CARTESIAN_POINT('Ctrl Pts',(1.84777245078694,41.0710296322439,-31.9467909573391));
#958=CARTESIAN_POINT('Ctrl Pts',(2.06384419080719,40.5494675905873,-31.9335601316241));
#959=CARTESIAN_POINT('Ctrl Pts',(2.117,40.265898643313,-31.9298968210046));
#960=CARTESIAN_POINT('Ctrl Pts',(2.117,40.,-31.9298968210046));
#961=CARTESIAN_POINT('Origin',(0.,40.,0.));
#962=CARTESIAN_POINT('',(2.117,40.,31.9298968210046));
#963=CARTESIAN_POINT('',(-2.117,40.,31.9298968210046));
#964=CARTESIAN_POINT('Ctrl Pts',(2.117,40.,31.9298968210046));
#965=CARTESIAN_POINT('Ctrl Pts',(2.117,40.265898643313,31.9298968210046));
#966=CARTESIAN_POINT('Ctrl Pts',(2.06384419080719,40.5494675905873,31.9335601316241));
#967=CARTESIAN_POINT('Ctrl Pts',(1.84777245078694,41.0710296322439,31.9467909573391));
#968=CARTESIAN_POINT('Ctrl Pts',(1.68486078717228,41.3090293243716,31.9561673843134));
#969=CARTESIAN_POINT('Ctrl Pts',(1.30902944624667,41.6848606652972,31.973767867259));
#970=CARTESIAN_POINT('Ctrl Pts',(1.07102969964254,41.8477724223075,31.9831353340804));
#971=CARTESIAN_POINT('Ctrl Pts',(0.549467480556282,42.0638442369483,31.9963456648225));
#972=CARTESIAN_POINT('Ctrl Pts',(0.265898470861045,42.117,32.));
#973=CARTESIAN_POINT('Ctrl Pts',(-0.265898470861046,42.117,32.));
#974=CARTESIAN_POINT('Ctrl Pts',(-0.549467480556283,42.0638442369483,31.9963456648225));
#975=CARTESIAN_POINT('Ctrl Pts',(-1.07102969964254,41.8477724223075,31.9831353340804));
#976=CARTESIAN_POINT('Ctrl Pts',(-1.30902944624667,41.6848606652972,31.973767867259));
#977=CARTESIAN_POINT('Ctrl Pts',(-1.68486078717228,41.3090293243716,31.9561673843134));
#978=CARTESIAN_POINT('Ctrl Pts',(-1.84777245078694,41.0710296322439,31.9467909573391));
#979=CARTESIAN_POINT('Ctrl Pts',(-2.06384419080719,40.5494675905873,31.9335601316241));
#980=CARTESIAN_POINT('Ctrl Pts',(-2.117,40.265898643313,31.9298968210046));
#981=CARTESIAN_POINT('Ctrl Pts',(-2.117,40.,31.9298968210046));
#982=CARTESIAN_POINT('Ctrl Pts',(-2.117,40.,31.9298968210046));
#983=CARTESIAN_POINT('Ctrl Pts',(-2.117,39.734101356687,31.9298968210046));
#984=CARTESIAN_POINT('Ctrl Pts',(-2.06384419080719,39.4505324094126,31.9335601316241));
#985=CARTESIAN_POINT('Ctrl Pts',(-1.84777245078695,38.9289703677561,31.9467909573391));
#986=CARTESIAN_POINT('Ctrl Pts',(-1.68486078717228,38.6909706756284,31.9561673843134));
#987=CARTESIAN_POINT('Ctrl Pts',(-1.30902944624667,38.3151393347028,31.973767867259));
#988=CARTESIAN_POINT('Ctrl Pts',(-1.07102969964253,38.1522275776925,31.9831353340804));
#989=CARTESIAN_POINT('Ctrl Pts',(-0.54946748055628,37.9361557630517,31.9963456648225));
#990=CARTESIAN_POINT('Ctrl Pts',(-0.265898470861045,37.883,32.));
#991=CARTESIAN_POINT('Ctrl Pts',(0.265898470861046,37.883,32.));
#992=CARTESIAN_POINT('Ctrl Pts',(0.549467480556278,37.9361557630517,31.9963456648225));
#993=CARTESIAN_POINT('Ctrl Pts',(1.07102969964253,38.1522275776925,31.9831353340804));
#994=CARTESIAN_POINT('Ctrl Pts',(1.30902944624667,38.3151393347028,31.973767867259));
#995=CARTESIAN_POINT('Ctrl Pts',(1.68486078717228,38.6909706756284,31.9561673843134));
#996=CARTESIAN_POINT('Ctrl Pts',(1.84777245078694,38.9289703677561,31.9467909573391));
#997=CARTESIAN_POINT('Ctrl Pts',(2.06384419080719,39.4505324094126,31.9335601316241));
#998=CARTESIAN_POINT('Ctrl Pts',(2.117,39.734101356687,31.9298968210046));
#999=CARTESIAN_POINT('Ctrl Pts',(2.117,40.,31.9298968210046));
#1000=CARTESIAN_POINT('',(-2.117,40.,35.9377004133542));
#1001=CARTESIAN_POINT('',(-2.117,40.,0.));
#1002=CARTESIAN_POINT('',(2.117,40.,35.9377004133542));
#1003=CARTESIAN_POINT('Ctrl Pts',(2.117,40.,35.9377004133542));
#1004=CARTESIAN_POINT('Ctrl Pts',(2.117,39.7341189032451,35.9377004133542));
#1005=CARTESIAN_POINT('Ctrl Pts',(2.0638510410691,39.4505574847738,35.9409546985211));
#1006=CARTESIAN_POINT('Ctrl Pts',(1.84778436728701,38.9289905930469,35.9527105887078));
#1007=CARTESIAN_POINT('Ctrl Pts',(1.68487002642654,38.6909799148827,35.9610426706049));
#1008=CARTESIAN_POINT('Ctrl Pts',(1.30902016114172,38.3151300495979,35.9766847159673));
#1009=CARTESIAN_POINT('Ctrl Pts',(1.07100944873057,38.152215651005,35.9850105080031));
#1010=CARTESIAN_POINT('Ctrl Pts',(0.549442446778345,37.9361489295903,35.9967520131684));
#1011=CARTESIAN_POINT('Ctrl Pts',(0.265880989193626,37.883,36.));
#1012=CARTESIAN_POINT('Ctrl Pts',(-0.265880989193627,37.883,36.));
#1013=CARTESIAN_POINT('Ctrl Pts',(-0.549442446778346,37.9361489295903,35.9967520131684));
#1014=CARTESIAN_POINT('Ctrl Pts',(-1.07100944873057,38.152215651005,35.9850105080031));
#1015=CARTESIAN_POINT('Ctrl Pts',(-1.30902016114172,38.3151300495979,35.9766847159673));
#1016=CARTESIAN_POINT('Ctrl Pts',(-1.68487002642654,38.6909799148827,35.9610426706049));
#1017=CARTESIAN_POINT('Ctrl Pts',(-1.84778436728701,38.9289905930469,35.9527105887078));
#1018=CARTESIAN_POINT('Ctrl Pts',(-2.0638510410691,39.4505574847738,35.9409546985211));
#1019=CARTESIAN_POINT('Ctrl Pts',(-2.117,39.7341189032451,35.9377004133542));
#1020=CARTESIAN_POINT('Ctrl Pts',(-2.117,40.,35.9377004133542));
#1021=CARTESIAN_POINT('Ctrl Pts',(-2.117,40.,35.9377004133542));
#1022=CARTESIAN_POINT('Ctrl Pts',(-2.117,40.2658810967549,35.9377004133542));
#1023=CARTESIAN_POINT('Ctrl Pts',(-2.0638510410691,40.5494425152262,35.9409546985211));
#1024=CARTESIAN_POINT('Ctrl Pts',(-1.84778436728701,41.0710094069531,35.9527105887078));
#1025=CARTESIAN_POINT('Ctrl Pts',(-1.68487002642654,41.3090200851173,35.9610426706049));
#1026=CARTESIAN_POINT('Ctrl Pts',(-1.30902016114172,41.6848699504021,35.9766847159673));
#1027=CARTESIAN_POINT('Ctrl Pts',(-1.07100944873057,41.847784348995,35.9850105080031));
#1028=CARTESIAN_POINT('Ctrl Pts',(-0.549442446778341,42.0638510704097,35.9967520131684));
#1029=CARTESIAN_POINT('Ctrl Pts',(-0.265880989193626,42.117,36.));
#1030=CARTESIAN_POINT('Ctrl Pts',(0.265880989193627,42.117,36.));
#1031=CARTESIAN_POINT('Ctrl Pts',(0.549442446778341,42.0638510704097,35.9967520131684));
#1032=CARTESIAN_POINT('Ctrl Pts',(1.07100944873057,41.847784348995,35.9850105080031));
#1033=CARTESIAN_POINT('Ctrl Pts',(1.30902016114172,41.6848699504021,35.9766847159673));
#1034=CARTESIAN_POINT('Ctrl Pts',(1.68487002642654,41.3090200851173,35.9610426706049));
#1035=CARTESIAN_POINT('Ctrl Pts',(1.84778436728701,41.0710094069531,35.9527105887078));
#1036=CARTESIAN_POINT('Ctrl Pts',(2.0638510410691,40.5494425152262,35.9409546985211));
#1037=CARTESIAN_POINT('Ctrl Pts',(2.117,40.2658810967549,35.9377004133542));
#1038=CARTESIAN_POINT('Ctrl Pts',(2.117,40.,35.9377004133542));
#1039=CARTESIAN_POINT('Origin',(-18.,121.,-18.));
#1040=CARTESIAN_POINT('',(-32.,121.,-36.));
#1041=CARTESIAN_POINT('',(-32.,121.,-16.4924225024706));
#1042=CARTESIAN_POINT('',(-32.,121.,-36.));
#1043=CARTESIAN_POINT('',(-16.4924225024706,121.,-32.));
#1044=CARTESIAN_POINT('Origin',(0.,121.,0.));
#1045=CARTESIAN_POINT('',(16.4924225024706,121.,-32.));
#1046=CARTESIAN_POINT('',(-32.,121.,-32.));
#1047=CARTESIAN_POINT('',(32.,121.,-16.4924225024706));
#1048=CARTESIAN_POINT('Origin',(0.,121.,0.));
#1049=CARTESIAN_POINT('',(32.,121.,-36.));
#1050=CARTESIAN_POINT('',(32.,121.,-25.));
#1051=CARTESIAN_POINT('',(2.,121.,-36.));
#1052=CARTESIAN_POINT('Origin',(-32.,120.,32.));
#1053=CARTESIAN_POINT('',(-32.,124.,-36.));
#1054=CARTESIAN_POINT('',(-32.,124.,0.));
#1055=CARTESIAN_POINT('',(-32.,124.,-36.));
#1056=CARTESIAN_POINT('',(-32.,124.,36.));
#1057=CARTESIAN_POINT('',(-32.,124.,16.));
#1058=CARTESIAN_POINT('',(-32.,121.,36.));
#1059=CARTESIAN_POINT('',(-32.,120.5,36.));
#1060=CARTESIAN_POINT('',(-32.,121.,16.4924225024706));
#1061=CARTESIAN_POINT('',(-32.,121.,25.));
#1062=CARTESIAN_POINT('',(-32.,120.,16.4924225024706));
#1063=CARTESIAN_POINT('',(-32.,120.,16.4924225024706));
#1064=CARTESIAN_POINT('',(-32.,120.,3.91886975727153E-15));
#1065=CARTESIAN_POINT('',(-32.,120.,16.));
#1066=CARTESIAN_POINT('',(-32.,120.,-16.4924225024706));
#1067=CARTESIAN_POINT('',(-32.,120.,16.));
#1068=CARTESIAN_POINT('',(-32.,120.,-16.4924225024706));
#1069=CARTESIAN_POINT('',(-32.,122.,-36.));
#1070=CARTESIAN_POINT('Origin',(0.,124.,0.));
#1071=CARTESIAN_POINT('',(32.,124.,-3.91886975727153E-15));
#1072=CARTESIAN_POINT('Origin',(0.,124.,0.));
#1073=CARTESIAN_POINT('',(32.,124.,-36.));
#1074=CARTESIAN_POINT('',(34.,124.,-36.));
#1075=CARTESIAN_POINT('',(32.,124.,-16.));
#1076=CARTESIAN_POINT('Origin',(18.,121.,18.));
#1077=CARTESIAN_POINT('',(32.,121.,36.));
#1078=CARTESIAN_POINT('',(32.,121.,16.4924225024706));
#1079=CARTESIAN_POINT('',(32.,121.,36.));
#1080=CARTESIAN_POINT('',(16.4924225024706,121.,32.));
#1081=CARTESIAN_POINT('Origin',(0.,121.,0.));
#1082=CARTESIAN_POINT('',(-16.4924225024706,121.,32.));
#1083=CARTESIAN_POINT('',(32.,121.,32.));
#1084=CARTESIAN_POINT('Origin',(0.,121.,0.));
#1085=CARTESIAN_POINT('',(-2.,121.,36.));
#1086=CARTESIAN_POINT('Origin',(32.,120.,-32.));
#1087=CARTESIAN_POINT('',(32.,120.,-16.4924225024706));
#1088=CARTESIAN_POINT('',(32.,120.,-16.4924225024706));
#1089=CARTESIAN_POINT('',(32.,120.,0.));
#1090=CARTESIAN_POINT('',(32.,120.,-16.));
#1091=CARTESIAN_POINT('',(32.,120.,16.4924225024706));
#1092=CARTESIAN_POINT('',(32.,120.,-16.));
#1093=CARTESIAN_POINT('',(32.,120.,16.4924225024706));
#1094=CARTESIAN_POINT('',(32.,124.,36.));
#1095=CARTESIAN_POINT('',(32.,122.,36.));
#1096=CARTESIAN_POINT('',(32.,124.,-16.));
#1097=CARTESIAN_POINT('',(32.,120.5,-36.));
#1098=CARTESIAN_POINT('Origin',(0.,124.,0.));
#1099=CARTESIAN_POINT('Origin',(0.,124.,0.));
#1100=CARTESIAN_POINT('',(-34.,124.,36.));
#1101=CARTESIAN_POINT('Origin',(0.,125.,0.));
#1102=CARTESIAN_POINT('',(32.,125.,3.91886975727153E-15));
#1103=CARTESIAN_POINT('',(32.,125.,3.91886975727153E-15));
#1104=CARTESIAN_POINT('Origin',(0.,125.,0.));
#1105=CARTESIAN_POINT('Origin',(32.,120.,32.));
#1106=CARTESIAN_POINT('',(16.4924225024706,120.,32.));
#1107=CARTESIAN_POINT('',(16.4924225024706,120.,32.));
#1108=CARTESIAN_POINT('',(0.,120.,32.));
#1109=CARTESIAN_POINT('',(16.,120.,32.));
#1110=CARTESIAN_POINT('',(-16.4924225024706,120.,32.));
#1111=CARTESIAN_POINT('',(16.,120.,32.));
#1112=CARTESIAN_POINT('',(-16.4924225024706,120.,32.));
#1113=CARTESIAN_POINT('Origin',(36.,120.,-36.));
#1114=CARTESIAN_POINT('',(36.,120.,-36.));
#1115=CARTESIAN_POINT('',(36.,125.,-36.));
#1116=CARTESIAN_POINT('',(36.,120.,-36.));
#1117=CARTESIAN_POINT('',(0.,120.,-36.));
#1118=CARTESIAN_POINT('',(-36.,120.,-36.));
#1119=CARTESIAN_POINT('',(-36.,120.,-36.));
#1120=CARTESIAN_POINT('',(-36.,120.,-36.));
#1121=CARTESIAN_POINT('',(-36.,125.,-36.));
#1122=CARTESIAN_POINT('',(-36.,120.,-36.));
#1123=CARTESIAN_POINT('',(-36.,125.,-36.));
#1124=CARTESIAN_POINT('Origin',(36.,120.,36.));
#1125=CARTESIAN_POINT('',(36.,120.,36.));
#1126=CARTESIAN_POINT('',(36.,125.,36.));
#1127=CARTESIAN_POINT('',(36.,120.,36.));
#1128=CARTESIAN_POINT('',(36.,120.,0.));
#1129=CARTESIAN_POINT('',(36.,120.,-36.));
#1130=CARTESIAN_POINT('',(36.,120.,-36.));
#1131=CARTESIAN_POINT('',(36.,125.,-36.));
#1132=CARTESIAN_POINT('Origin',(0.,120.,0.));
#1133=CARTESIAN_POINT('',(16.4924225024706,120.,-32.));
#1134=CARTESIAN_POINT('',(16.4924225024706,120.,-32.));
#1135=CARTESIAN_POINT('Origin',(0.,120.,0.));
#1136=CARTESIAN_POINT('Origin',(0.,120.,0.));
#1137=CARTESIAN_POINT('Origin',(0.,120.,0.));
#1138=CARTESIAN_POINT('Origin',(0.,120.,0.));
#1139=CARTESIAN_POINT('',(-16.4924225024706,120.,-32.));
#1140=CARTESIAN_POINT('',(-16.4924225024706,120.,-32.));
#1141=CARTESIAN_POINT('Origin',(0.,120.,0.));
#1142=CARTESIAN_POINT('Origin',(0.,120.,0.));
#1143=CARTESIAN_POINT('Origin',(0.,120.,0.));
#1144=CARTESIAN_POINT('Origin',(-36.,120.,-36.));
#1145=CARTESIAN_POINT('',(-36.,120.,4.40872847693047E-15));
#1146=CARTESIAN_POINT('',(-36.,120.,36.));
#1147=CARTESIAN_POINT('',(-36.,120.,36.));
#1148=CARTESIAN_POINT('',(-36.,120.,36.));
#1149=CARTESIAN_POINT('',(-36.,125.,36.));
#1150=CARTESIAN_POINT('',(-36.,120.,36.));
#1151=CARTESIAN_POINT('',(-36.,125.,36.));
#1152=CARTESIAN_POINT('Origin',(0.,120.,0.));
#1153=CARTESIAN_POINT('Origin',(0.,120.,0.));
#1154=CARTESIAN_POINT('Origin',(0.,120.,0.));
#1155=CARTESIAN_POINT('Origin',(0.,120.,0.));
#1156=CARTESIAN_POINT('Origin',(0.,120.,0.));
#1157=CARTESIAN_POINT('Origin',(0.,120.,0.));
#1158=CARTESIAN_POINT('Origin',(0.,120.,0.));
#1159=CARTESIAN_POINT('',(0.,120.,36.));
#1160=CARTESIAN_POINT('Origin',(0.,120.,0.));
#1161=CARTESIAN_POINT('Origin',(0.,120.,0.));
#1162=CARTESIAN_POINT('',(36.,120.,36.));
#1163=CARTESIAN_POINT('Origin',(-32.,120.,-32.));
#1164=CARTESIAN_POINT('',(0.,120.,-32.));
#1165=CARTESIAN_POINT('',(-16.,120.,-32.));
#1166=CARTESIAN_POINT('',(-16.,120.,-32.));
#1167=CARTESIAN_POINT('Origin',(-36.,120.,36.));
#1168=CARTESIAN_POINT('',(36.,120.,36.));
#1169=CARTESIAN_POINT('',(36.,125.,36.));
#1170=CARTESIAN_POINT('Origin',(0.,125.,0.));
#1171=CARTESIAN_POINT('Origin',(0.,120.,0.));
#1172=CARTESIAN_POINT('Origin',(0.,120.,0.));
#1173=CARTESIAN_POINT('Origin',(0.,120.,0.));
#1174=CARTESIAN_POINT('Origin',(0.,120.,0.));
#1175=CARTESIAN_POINT('Origin',(0.,120.,0.));
#1176=CARTESIAN_POINT('Origin',(0.,120.,0.));
#1177=CARTESIAN_POINT('Origin',(0.,120.,0.));
#1178=CARTESIAN_POINT('Origin',(0.,120.,0.));
#1179=CARTESIAN_POINT('Origin',(0.,120.,0.));
#1180=CARTESIAN_POINT('Origin',(0.,120.,0.));
#1181=CARTESIAN_POINT('Origin',(0.,120.,0.));
#1182=CARTESIAN_POINT('Origin',(0.,120.,0.));
#1183=CARTESIAN_POINT('Origin',(0.,0.,0.));
#1184=CARTESIAN_POINT('',(-32.,0.,3.91886975727153E-15));
#1185=CARTESIAN_POINT('',(-32.,0.,3.91886975727153E-15));
#1186=CARTESIAN_POINT('Origin',(0.,0.,0.));
#1187=CARTESIAN_POINT('Origin',(0.,120.,0.));
#1188=CARTESIAN_POINT('Origin',(0.,0.,0.));
#1189=CARTESIAN_POINT('',(-36.,0.,4.40872847693047E-15));
#1190=CARTESIAN_POINT('',(-36.,0.,4.40872847693047E-15));
#1191=CARTESIAN_POINT('Origin',(0.,0.,0.));
#1192=CARTESIAN_POINT('Origin',(0.,120.,0.));
#1193=CARTESIAN_POINT('Origin',(0.,120.,0.));
#1194=CARTESIAN_POINT('Origin',(0.,0.,0.));
#1195=UNCERTAINTY_MEASURE_WITH_UNIT(LENGTH_MEASURE(0.01),#1199,
'DISTANCE_ACCURACY_VALUE',
'Maximum model space distance between geometric entities at asserted c
onnectivities');
#1196=UNCERTAINTY_MEASURE_WITH_UNIT(LENGTH_MEASURE(0.01),#1199,
'DISTANCE_ACCURACY_VALUE',
'Maximum model space distance between geometric entities at asserted c
onnectivities');
#1197=(
GEOMETRIC_REPRESENTATION_CONTEXT(3)
GLOBAL_UNCERTAINTY_ASSIGNED_CONTEXT((#1195))
GLOBAL_UNIT_ASSIGNED_CONTEXT((#1199,#1201,#1202))
REPRESENTATION_CONTEXT('','3D')
);
#1198=(
GEOMETRIC_REPRESENTATION_CONTEXT(3)
GLOBAL_UNCERTAINTY_ASSIGNED_CONTEXT((#1196))
GLOBAL_UNIT_ASSIGNED_CONTEXT((#1199,#1201,#1202))
REPRESENTATION_CONTEXT('','3D')
);
#1199=(
LENGTH_UNIT()
NAMED_UNIT(*)
SI_UNIT(.MILLI.,.METRE.)
);
#1200=(
LENGTH_UNIT()
NAMED_UNIT(*)
SI_UNIT($,.METRE.)
);
#1201=(
NAMED_UNIT(*)
PLANE_ANGLE_UNIT()
SI_UNIT($,.RADIAN.)
);
#1202=(
NAMED_UNIT(*)
SI_UNIT($,.STERADIAN.)
SOLID_ANGLE_UNIT()
);
#1203=SHAPE_DEFINITION_REPRESENTATION(#1204,#1205);
#1204=PRODUCT_DEFINITION_SHAPE('',$,#1207);
#1205=SHAPE_REPRESENTATION('',(#644),#1197);
#1206=PRODUCT_DEFINITION_CONTEXT('part definition',#1211,'design');
#1207=PRODUCT_DEFINITION('spectroscope project 1',
'spectroscope project 1 v1',#1208,#1206);
#1208=PRODUCT_DEFINITION_FORMATION('',$,#1213);
#1209=PRODUCT_RELATED_PRODUCT_CATEGORY('spectroscope project 1 v1',
'spectroscope project 1 v1',(#1213));
#1210=APPLICATION_PROTOCOL_DEFINITION('international standard',
'automotive_design',2009,#1211);
#1211=APPLICATION_CONTEXT(
'Core Data for Automotive Mechanical Design Process');
#1212=PRODUCT_CONTEXT('part definition',#1211,'mechanical');
#1213=PRODUCT('spectroscope project 1','spectroscope project 1 v1',$,(#1212));
#1214=PRESENTATION_STYLE_ASSIGNMENT((#1215));
#1215=SURFACE_STYLE_USAGE(.BOTH.,#1216);
#1216=SURFACE_SIDE_STYLE('',(#1217));
#1217=SURFACE_STYLE_FILL_AREA(#1218);
#1218=FILL_AREA_STYLE('Steel - Satin',(#1219));
#1219=FILL_AREA_STYLE_COLOUR('Steel - Satin',#1220);
#1220=COLOUR_RGB('Steel - Satin',0.627450980392157,0.627450980392157,0.627450980392157);
ENDSEC;
END-ISO-10303-21;
